<svg data-v-423bf9ae="" xmlns="http://www.w3.org/2000/svg" viewBox="0 0 328.8888888888889 163" class="iconAbove"><!----><!----><!----><g data-v-423bf9ae="" id="ea8cc1f6-86f7-41b5-abe7-2726dbcf6e67" fill="white" transform="matrix(4.44444465637207,0,0,4.44444465637207,-0.7986207008361816,90.29166412353516)"><path d="M0.18 15.61L0.35 15.61L0.35 15.61Q0.51 15.61 0.68 15.58L0.68 15.58L0.68 15.58Q0.85 15.55 1.00 15.46L1.00 15.46L1.00 15.46Q1.15 15.36 1.25 15.18L1.25 15.18L1.25 15.18Q1.35 15.00 1.35 14.70L1.35 14.70L1.35 7.21L1.35 7.21Q1.35 6.89 1.27 6.70L1.27 6.70L1.27 6.70Q1.20 6.51 1.08 6.41L1.08 6.41L1.08 6.41Q0.95 6.30 0.78 6.27L0.78 6.27L0.78 6.27Q0.60 6.23 0.40 6.23L0.40 6.23L0.31 6.23L0.31 5.49L3.05 5.49L3.30 6.58L3.36 6.58L3.36 6.58Q3.51 6.31 3.72 6.08L3.72 6.08L3.72 6.08Q3.92 5.86 4.18 5.69L4.18 5.69L4.18 5.69Q4.44 5.53 4.77 5.44L4.77 5.44L4.77 5.44Q5.10 5.35 5.50 5.35L5.50 5.35L5.50 5.35Q6.20 5.35 6.74 5.58L6.74 5.58L6.74 5.58Q7.27 5.81 7.64 6.29L7.64 6.29L7.64 6.29Q8.00 6.77 8.19 7.51L8.19 7.51L8.19 7.51Q8.37 8.25 8.37 9.27L8.37 9.27L8.37 9.27Q8.37 10.28 8.19 11.02L8.19 11.02L8.19 11.02Q8.00 11.75 7.65 12.23L7.65 12.23L7.65 12.23Q7.29 12.71 6.76 12.94L6.76 12.94L6.76 12.94Q6.24 13.17 5.56 13.17L5.56 13.17L5.56 13.17Q4.76 13.17 4.26 12.86L4.26 12.86L4.26 12.86Q3.76 12.56 3.46 12.04L3.46 12.04L3.36 12.04L3.36 12.04Q3.39 12.37 3.42 12.67L3.42 12.67L3.42 12.67Q3.44 12.93 3.46 13.23L3.46 13.23L3.46 13.23Q3.47 13.52 3.47 13.74L3.47 13.74L3.47 14.70L3.47 14.70Q3.47 15.00 3.57 15.18L3.57 15.18L3.57 15.18Q3.67 15.36 3.82 15.46L3.82 15.46L3.82 15.46Q3.96 15.55 4.14 15.58L4.14 15.58L4.14 15.58Q4.31 15.61 4.46 15.61L4.46 15.61L4.77 15.61L4.77 16.36L0.18 16.36L0.18 15.61ZM4.90 12.13L4.90 12.13L4.90 12.13Q5.61 12.13 5.91 11.42L5.91 11.42L5.91 11.42Q6.21 10.71 6.21 9.28L6.21 9.28L6.21 9.28Q6.21 7.89 5.91 7.14L5.91 7.14L5.91 7.14Q5.61 6.40 4.92 6.40L4.92 6.40L4.92 6.40Q4.50 6.40 4.22 6.59L4.22 6.59L4.22 6.59Q3.94 6.77 3.77 7.14L3.77 7.14L3.77 7.14Q3.61 7.51 3.54 8.04L3.54 8.04L3.54 8.04Q3.47 8.58 3.47 9.27L3.47 9.27L3.47 9.27Q3.47 9.99 3.54 10.53L3.54 10.53L3.54 10.53Q3.61 11.07 3.77 11.42L3.77 11.42L3.77 11.42Q3.94 11.78 4.21 11.95L4.21 11.95L4.21 11.95Q4.48 12.13 4.90 12.13ZM16.95 9.21L16.95 9.21L16.95 9.21Q16.95 11.19 16.03 12.16L16.03 12.16L16.03 12.16Q15.10 13.13 13.30 13.13L13.30 13.13L13.30 13.13Q12.46 13.13 11.79 12.89L11.79 12.89L11.79 12.89Q11.12 12.65 10.65 12.16L10.65 12.16L10.65 12.16Q10.19 11.68 9.94 10.94L9.94 10.94L9.94 10.94Q9.69 10.20 9.69 9.21L9.69 9.21L9.69 9.21Q9.69 7.24 10.61 6.28L10.61 6.28L10.61 6.28Q11.54 5.31 13.34 5.31L13.34 5.31L13.34 5.31Q14.18 5.31 14.85 5.55L14.85 5.55L14.85 5.55Q15.52 5.79 15.99 6.28L15.99 6.28L15.99 6.28Q16.45 6.76 16.70 7.50L16.70 7.50L16.70 7.50Q16.95 8.23 16.95 9.21ZM11.86 9.21L11.86 9.21L11.86 9.21Q11.86 9.96 11.94 10.53L11.94 10.53L11.94 10.53Q12.02 11.09 12.19 11.48L12.19 11.48L12.19 11.48Q12.37 11.86 12.65 12.06L12.65 12.06L12.65 12.06Q12.93 12.25 13.33 12.25L13.33 12.25L13.33 12.25Q13.73 12.25 14.01 12.06L14.01 12.06L14.01 12.06Q14.29 11.86 14.46 11.48L14.46 11.48L14.46 11.48Q14.64 11.09 14.71 10.53L14.71 10.53L14.71 10.53Q14.79 9.96 14.79 9.21L14.79 9.21L14.79 9.21Q14.79 8.46 14.71 7.90L14.71 7.90L14.71 7.90Q14.63 7.33 14.45 6.96L14.45 6.96L14.45 6.96Q14.28 6.58 14 6.40L14 6.40L14 6.40Q13.72 6.21 13.32 6.21L13.32 6.21L13.32 6.21Q12.91 6.21 12.63 6.40L12.63 6.40L12.63 6.40Q12.35 6.58 12.18 6.96L12.18 6.96L12.18 6.96Q12.01 7.33 11.94 7.90L11.94 7.90L11.94 7.90Q11.86 8.46 11.86 9.21ZM23.62 5.56L24.53 5.56L25.89 9.69L25.89 9.69Q26.07 10.20 26.14 10.55L26.14 10.55L26.14 10.55Q26.22 10.90 26.26 11.16L26.26 11.16L26.30 11.16L26.30 11.16Q26.34 10.99 26.37 10.83L26.37 10.83L26.37 10.83Q26.40 10.67 26.44 10.50L26.44 10.50L26.44 10.50Q26.49 10.33 26.54 10.13L26.54 10.13L26.54 10.13Q26.60 9.93 26.68 9.67L26.68 9.67L27.30 7.62L27.30 7.62Q27.35 7.44 27.39 7.24L27.39 7.24L27.39 7.24Q27.43 7.03 27.43 6.92L27.43 6.92L27.43 6.92Q27.43 6.56 27.20 6.40L27.20 6.40L27.20 6.40Q26.97 6.23 26.50 6.23L26.50 6.23L26.40 6.23L26.40 5.49L29.61 5.49L29.61 6.23L29.43 6.23L29.43 6.23Q29.22 6.23 29.07 6.28L29.07 6.28L29.07 6.28Q28.92 6.32 28.81 6.44L28.81 6.44L28.81 6.44Q28.69 6.56 28.59 6.77L28.59 6.77L28.59 6.77Q28.49 6.99 28.38 7.33L28.38 7.33L26.57 13.00L25.06 13.00L23.53 8.35L21.92 13.00L20.40 13.00L18.60 6.97L18.60 6.97Q18.53 6.75 18.44 6.61L18.44 6.61L18.44 6.61Q18.35 6.47 18.23 6.38L18.23 6.38L18.23 6.38Q18.12 6.30 17.96 6.27L17.96 6.27L17.96 6.27Q17.81 6.23 17.61 6.23L17.61 6.23L17.57 6.23L17.57 5.49L21.67 5.49L21.67 6.23L21.49 6.23L21.49 6.23Q21.06 6.23 20.85 6.35L20.85 6.35L20.85 6.35Q20.64 6.47 20.64 6.82L20.64 6.82L20.64 6.82Q20.64 6.94 20.68 7.10L20.68 7.10L20.68 7.10Q20.72 7.27 20.76 7.42L20.76 7.42L21.28 9.24L21.28 9.24Q21.35 9.50 21.41 9.76L21.41 9.76L21.41 9.76Q21.47 10.03 21.53 10.28L21.53 10.28L21.53 10.28Q21.58 10.53 21.63 10.76L21.63 10.76L21.63 10.76Q21.67 10.99 21.70 11.16L21.70 11.16L21.74 11.16L21.74 11.16Q21.80 10.81 21.91 10.44L21.91 10.44L21.91 10.44Q22.01 10.07 22.19 9.55L22.19 9.55L23.62 5.56ZM33.75 6.22L33.75 6.22L33.75 6.22Q33.16 6.22 32.82 6.80L32.82 6.80L32.82 6.80Q32.47 7.38 32.44 8.50L32.44 8.50L34.86 8.50L34.86 8.50Q34.86 7.97 34.79 7.55L34.79 7.55L34.79 7.55Q34.73 7.12 34.60 6.83L34.60 6.83L34.60 6.83Q34.47 6.54 34.26 6.38L34.26 6.38L34.26 6.38Q34.05 6.22 33.75 6.22ZM33.88 13.13L33.88 13.13L33.88 13.13Q32.99 13.13 32.31 12.87L32.31 12.87L32.31 12.87Q31.63 12.61 31.17 12.12L31.17 12.12L31.17 12.12Q30.71 11.63 30.48 10.91L30.48 10.91L30.48 10.91Q30.25 10.20 30.25 9.28L30.25 9.28L30.25 9.28Q30.25 8.30 30.48 7.55L30.48 7.55L30.48 7.55Q30.71 6.81 31.16 6.31L31.16 6.31L31.16 6.31Q31.60 5.81 32.25 5.56L32.25 5.56L32.25 5.56Q32.89 5.31 33.72 5.31L33.72 5.31L33.72 5.31Q34.48 5.31 35.09 5.53L35.09 5.53L35.09 5.53Q35.70 5.74 36.12 6.17L36.12 6.17L36.12 6.17Q36.54 6.59 36.77 7.22L36.77 7.22L36.77 7.22Q37.00 7.85 37.00 8.68L37.00 8.68L37.00 9.40L32.41 9.40L32.41 9.40Q32.43 10.10 32.56 10.61L32.56 10.61L32.56 10.61Q32.70 11.12 32.93 11.44L32.93 11.44L32.93 11.44Q33.17 11.77 33.51 11.93L33.51 11.93L33.51 11.93Q33.84 12.09 34.28 12.09L34.28 12.09L34.28 12.09Q34.64 12.09 34.95 12.00L34.95 12.00L34.95 12.00Q35.26 11.92 35.51 11.76L35.51 11.76L35.51 11.76Q35.76 11.61 35.95 11.40L35.95 11.40L35.95 11.40Q36.13 11.19 36.26 10.95L36.26 10.95L36.26 10.95Q36.63 11.16 36.63 11.63L36.63 11.63L36.63 11.63Q36.63 11.94 36.47 12.21L36.47 12.21L36.47 12.21Q36.31 12.48 35.96 12.68L35.96 12.68L35.96 12.68Q35.62 12.89 35.11 13.01L35.11 13.01L35.11 13.01Q34.59 13.13 33.88 13.13ZM42.54 12.25L42.54 13.00L37.86 13.00L37.86 12.25L37.91 12.25L37.91 12.25Q38.14 12.25 38.34 12.22L38.34 12.22L38.34 12.22Q38.54 12.18 38.68 12.08L38.68 12.08L38.68 12.08Q38.83 11.97 38.91 11.77L38.91 11.77L38.91 11.77Q38.99 11.57 38.99 11.25L38.99 11.25L38.99 7.18L38.99 7.18Q38.99 6.88 38.91 6.69L38.91 6.69L38.91 6.69Q38.84 6.50 38.71 6.40L38.71 6.40L38.71 6.40Q38.58 6.30 38.39 6.27L38.39 6.27L38.39 6.27Q38.21 6.23 37.97 6.23L37.97 6.23L37.93 6.23L37.93 5.49L40.76 5.49L41.04 6.58L41.11 6.58L41.11 6.58Q41.25 6.27 41.41 6.03L41.41 6.03L41.41 6.03Q41.58 5.80 41.81 5.64L41.81 5.64L41.81 5.64Q42.03 5.48 42.35 5.40L42.35 5.40L42.35 5.40Q42.66 5.33 43.09 5.33L43.09 5.33L43.09 5.33Q43.91 5.33 44.30 5.62L44.30 5.62L44.30 5.62Q44.69 5.91 44.69 6.46L44.69 6.46L44.69 6.46Q44.69 7.10 44.23 7.46L44.23 7.46L44.23 7.46Q43.76 7.81 42.92 7.81L42.92 7.81L42.92 7.81Q42.92 7.53 42.89 7.31L42.89 7.31L42.89 7.31Q42.85 7.09 42.78 6.95L42.78 6.95L42.78 6.95Q42.70 6.80 42.56 6.73L42.56 6.73L42.56 6.73Q42.43 6.65 42.23 6.65L42.23 6.65L42.23 6.65Q41.99 6.65 41.81 6.77L41.81 6.77L41.81 6.77Q41.63 6.90 41.51 7.09L41.51 7.09L41.51 7.09Q41.38 7.29 41.31 7.53L41.31 7.53L41.31 7.53Q41.23 7.78 41.18 8.03L41.18 8.03L41.18 8.03Q41.14 8.28 41.13 8.50L41.13 8.50L41.13 8.50Q41.11 8.73 41.11 8.89L41.11 8.89L41.11 11.31L41.11 11.31Q41.11 11.62 41.19 11.81L41.19 11.81L41.19 11.81Q41.26 12.00 41.39 12.09L41.39 12.09L41.39 12.09Q41.52 12.19 41.70 12.22L41.70 12.22L41.70 12.22Q41.88 12.25 42.09 12.25L42.09 12.25L42.54 12.25ZM54.87 7.81L54.87 7.81L54.87 7.81Q54.87 8.96 54.56 9.92L54.56 9.92L54.56 9.92Q54.24 10.87 53.62 11.55L53.62 11.55L53.62 11.55Q52.99 12.24 52.07 12.62L52.07 12.62L52.07 12.62Q51.14 13.00 49.92 13.00L49.92 13.00L45.29 13.00L45.29 12.25L45.88 12.25L45.88 12.25Q46.04 12.25 46.17 12.22L46.17 12.22L46.17 12.22Q46.30 12.19 46.40 12.09L46.40 12.09L46.40 12.09Q46.49 12.00 46.55 11.82L46.55 11.82L46.55 11.82Q46.60 11.64 46.60 11.34L46.60 11.34L46.60 4.59L46.60 4.59Q46.60 4.31 46.55 4.15L46.55 4.15L46.55 4.15Q46.49 3.98 46.39 3.89L46.39 3.89L46.39 3.89Q46.29 3.80 46.16 3.77L46.16 3.77L46.16 3.77Q46.03 3.74 45.88 3.74L45.88 3.74L45.29 3.74L45.29 3.00L49.92 3.00L49.92 3.00Q51.08 3.00 52.00 3.31L52.00 3.31L52.00 3.31Q52.92 3.61 53.56 4.21L53.56 4.21L53.56 4.21Q54.20 4.82 54.53 5.72L54.53 5.72L54.53 5.72Q54.87 6.62 54.87 7.81ZM52.51 7.81L52.51 7.81L52.51 7.81Q52.51 5.81 51.77 4.83L51.77 4.83L51.77 4.83Q51.04 3.86 49.61 3.86L49.61 3.86L48.81 3.86L48.81 12.13L49.59 12.13L49.59 12.13Q50.31 12.13 50.86 11.83L50.86 11.83L50.86 11.83Q51.41 11.53 51.77 10.97L51.77 10.97L51.77 10.97Q52.14 10.41 52.32 9.61L52.32 9.61L52.32 9.61Q52.51 8.82 52.51 7.81ZM65.14 13.00L63.85 13.00L58.39 5.28L58.39 11.34L58.39 11.34Q58.39 11.64 58.44 11.82L58.44 11.82L58.44 11.82Q58.50 12.00 58.60 12.09L58.60 12.09L58.60 12.09Q58.69 12.19 58.83 12.22L58.83 12.22L58.83 12.22Q58.96 12.25 59.10 12.25L59.10 12.25L59.69 12.25L59.69 13.00L56.03 13.00L56.03 12.25L56.62 12.25L56.62 12.25Q56.77 12.25 56.90 12.22L56.90 12.22L56.90 12.22Q57.03 12.19 57.13 12.09L57.13 12.09L57.13 12.09Q57.23 12.00 57.29 11.82L57.29 11.82L57.29 11.82Q57.34 11.64 57.34 11.34L57.34 11.34L57.34 4.59L57.34 4.59Q57.34 4.31 57.28 4.15L57.28 4.15L57.28 4.15Q57.22 3.98 57.12 3.89L57.12 3.89L57.12 3.89Q57.03 3.80 56.90 3.77L56.90 3.77L56.90 3.77Q56.77 3.74 56.62 3.74L56.62 3.74L56.03 3.74L56.03 3.00L59.14 3.00L64.09 9.99L64.09 4.59L64.09 4.59Q64.09 4.31 64.03 4.15L64.03 4.15L64.03 4.15Q63.97 3.98 63.87 3.89L63.87 3.89L63.87 3.89Q63.77 3.80 63.64 3.77L63.64 3.77L63.64 3.77Q63.51 3.74 63.37 3.74L63.37 3.74L62.78 3.74L62.78 3.00L66.44 3.00L66.44 3.74L65.85 3.74L65.85 3.74Q65.71 3.74 65.58 3.77L65.58 3.77L65.58 3.77Q65.45 3.80 65.35 3.90L65.35 3.90L65.35 3.90Q65.25 3.99 65.19 4.17L65.19 4.17L65.19 4.17Q65.14 4.35 65.14 4.65L65.14 4.65L65.14 13.00ZM70.38 13.13L70.38 13.13L70.38 13.13Q69.43 13.13 68.80 12.95L68.80 12.95L68.80 12.95Q68.17 12.78 67.80 12.50L67.80 12.50L67.80 12.50Q67.42 12.22 67.26 11.87L67.26 11.87L67.26 11.87Q67.09 11.52 67.09 11.18L67.09 11.18L67.09 11.18Q67.09 10.81 67.23 10.57L67.23 10.57L67.23 10.57Q67.36 10.32 67.58 10.17L67.58 10.17L67.58 10.17Q67.81 10.01 68.09 9.94L68.09 9.94L68.09 9.94Q68.37 9.87 68.68 9.87L68.68 9.87L68.68 9.87Q68.68 10.47 68.82 10.93L68.82 10.93L68.82 10.93Q68.97 11.38 69.22 11.69L69.22 11.69L69.22 11.69Q69.47 11.99 69.83 12.14L69.83 12.14L69.83 12.14Q70.18 12.30 70.59 12.30L70.59 12.30L70.59 12.30Q71.00 12.30 71.33 12.18L71.33 12.18L71.33 12.18Q71.65 12.07 71.87 11.86L71.87 11.86L71.87 11.86Q72.10 11.66 72.21 11.38L72.21 11.38L72.21 11.38Q72.33 11.10 72.33 10.78L72.33 10.78L72.33 10.78Q72.33 10.42 72.19 10.15L72.19 10.15L72.19 10.15Q72.04 9.87 71.75 9.64L71.75 9.64L71.75 9.64Q71.46 9.40 71.02 9.18L71.02 9.18L71.02 9.18Q70.58 8.97 69.99 8.72L69.99 8.72L69.99 8.72Q69.26 8.42 68.76 8.10L68.76 8.10L68.76 8.10Q68.26 7.79 67.95 7.42L67.95 7.42L67.95 7.42Q67.64 7.05 67.51 6.62L67.51 6.62L67.51 6.62Q67.38 6.19 67.38 5.67L67.38 5.67L67.38 5.67Q67.38 5.03 67.63 4.51L67.63 4.51L67.63 4.51Q67.89 3.99 68.35 3.62L68.35 3.62L68.35 3.62Q68.81 3.25 69.44 3.06L69.44 3.06L69.44 3.06Q70.07 2.86 70.81 2.86L70.81 2.86L70.81 2.86Q71.58 2.86 72.14 2.98L72.14 2.98L72.14 2.98Q72.70 3.11 73.07 3.33L73.07 3.33L73.07 3.33Q73.43 3.55 73.61 3.85L73.61 3.85L73.61 3.85Q73.79 4.14 73.79 4.48L73.79 4.48L73.79 4.48Q73.79 4.73 73.68 4.94L73.68 4.94L73.68 4.94Q73.58 5.15 73.36 5.31L73.36 5.31L73.36 5.31Q73.14 5.47 72.82 5.56L72.82 5.56L72.82 5.56Q72.50 5.65 72.06 5.65L72.06 5.65L72.06 5.65Q72.06 5.35 71.99 5.01L71.99 5.01L71.99 5.01Q71.91 4.68 71.73 4.39L71.73 4.39L71.73 4.39Q71.55 4.09 71.27 3.90L71.27 3.90L71.27 3.90Q70.98 3.71 70.58 3.71L70.58 3.71L70.58 3.71Q70.30 3.71 70.05 3.79L70.05 3.79L70.05 3.79Q69.79 3.88 69.61 4.04L69.61 4.04L69.61 4.04Q69.42 4.20 69.31 4.45L69.31 4.45L69.31 4.45Q69.20 4.69 69.20 5.00L69.20 5.00L69.20 5.00Q69.20 5.30 69.30 5.56L69.30 5.56L69.30 5.56Q69.39 5.82 69.65 6.07L69.65 6.07L69.65 6.07Q69.90 6.32 70.35 6.57L70.35 6.57L70.35 6.57Q70.80 6.82 71.51 7.10L71.51 7.10L71.51 7.10Q72.23 7.40 72.73 7.70L72.73 7.70L72.73 7.70Q73.24 8.01 73.56 8.36L73.56 8.36L73.56 8.36Q73.89 8.72 74.04 9.14L74.04 9.14L74.04 9.14Q74.18 9.56 74.18 10.07L74.18 10.07L74.18 10.07Q74.18 10.75 73.92 11.31L73.92 11.31L73.92 11.31Q73.65 11.87 73.15 12.28L73.15 12.28L73.15 12.28Q72.65 12.68 71.95 12.91L71.95 12.91L71.95 12.91Q71.25 13.13 70.38 13.13Z"></path></g><!----><g data-v-423bf9ae="" id="0d8fe59a-2c70-4d16-bafc-352baab03828" transform="matrix(1.40625,0,0,1.40625,94.595458984375,-25.3125)" stroke="none" fill="white"><path d="M78.8 64c2.1-4.3 3.2-8.9 3.2-13.7.2-17.7-14-32.1-31.7-32.3h-.8c-17.7.1-31.9 14.6-31.8 32.2S32.3 82.1 50 82c5.8 0 9.8-4.4 12-13.1C63.1 64 63.8 59 63.9 54h9.8c-.5 2.8-1.4 5.5-2.9 8l-1.2 2h9.2zM55.9 46H44.1c.5-11.4 2.9-20 5.9-20s5.4 8.6 5.9 20zm0 8C55.4 65.3 53 74 50 74s-5.4-8.7-5.9-20h11.8zm-29.5 0h9.7c.1 5 .8 10 1.9 14.9.2.8.4 1.5.6 2.2l-.6-.3C31.8 67.2 27.5 61 26.4 54zm12.2-25.1c-.2.7-.4 1.4-.6 2.2C36.9 36 36.2 41 36.1 46h-9.7c.5-2.8 1.4-5.5 2.9-8 2.1-3.9 5.4-7 9.3-9.1zm35 17.1h-9.7c-.1-5-.8-10-1.9-14.9-.2-.8-.4-1.5-.6-2.2l.6.3c6.2 3.6 10.5 9.7 11.6 16.8z"></path><circle cx="73" cy="77" r="5"></circle></g><!----></svg>